<svg width="40" height="61" viewBox="0 0 40 61" fill="none" xmlns="http://www.w3.org/2000/svg">
<rect y="9.82422" width="17.1227" height="50.9683" fill="#1A1A1A"/>
<path d="M0 9.82422H25.4914C33.0842 9.82422 39.2394 15.9794 39.2394 23.5722V23.5722C39.2394 31.1651 33.0842 37.3203 25.4914 37.3203H0V9.82422Z" fill="#1A1A1A"/>
<path d="M19.3242 9.3004C19.2884 14.3725 15.8433 18.4581 11.6294 18.4259C7.41554 18.3937 4.02859 14.2559 4.06446 9.1838C4.10032 4.11173 7.54541 0.0261011 11.7593 0.0582984C15.9731 0.0904957 19.3601 4.22833 19.3242 9.3004Z" fill="white"/>
<ellipse cx="12.0865" cy="12.6035" rx="3.64263" ry="5.04882" fill="#1E1E1E"/>
<path d="M36.2134 9.3004C36.1775 14.3725 32.7324 18.4581 28.5186 18.4259C24.3047 18.3937 20.9178 14.2559 20.9536 9.1838C20.9895 4.11173 24.4346 0.0261011 28.6484 0.0582984C32.8623 0.0904957 36.2493 4.22833 36.2134 9.3004Z" fill="white"/>
<ellipse cx="28.5298" cy="12.6035" rx="3.64263" ry="5.04882" fill="#1E1E1E"/>
<path d="M29.9058 20.5129C31.105 19.7657 32.6979 19.8086 33.689 20.8156C34.6421 21.7841 34.5819 23.3689 33.4556 24.1291C32.9306 24.4834 32.3899 24.8095 31.8394 25.1144C32.3276 26.3826 31.828 27.7774 30.5269 28.4748C28.9751 29.3061 26.8708 28.8306 25.8267 27.4132L25.8052 27.384C20.2216 28.6126 14.1773 27.7686 9.07476 24.8283C7.84786 24.1213 7.65999 22.4807 8.56987 21.3957C9.40592 20.3991 10.8668 20.2441 12.0054 20.8732C17.6016 23.9649 24.5934 23.8229 29.9058 20.5129Z" fill="#E21111"/>
</svg>
